<?xml version="1.0" encoding="utf-8"?>
<svg viewBox="0 0 431 106" xmlns="http://www.w3.org/2000/svg">
	<path d="M57.71582,76.46664 C56.41002,80.34104 54.47282,83.71484 51.90422,86.58784 C49.33562,89.46084 46.20122,91.72504 42.50062,93.37904 C38.80042,95.03304 34.55602,95.86084 29.76762,95.86084 C25.06542,95.86084 20.86482,95.03304 17.16462,93.37904 C13.46402,91.72504 10.35162,89.43964 7.82682,86.52284 C5.30182,83.60604 3.38602,80.21044 2.08002,76.33604 C0.77422,72.46144 0.12102,68.30384 0.12102,63.86364 L15.14002,63.86364 C15.14002,69.34904 16.33702,73.81124 18.73182,77.24984 C21.12602,80.68924 24.80482,82.40904 29.76762,82.40904 C34.73042,82.40904 38.45222,80.71124 40.93342,77.31564 C43.41502,73.91984 44.65602,69.47904 44.65602,63.99444 L44.65602,2.22024 L59.67502,2.22024 L59.67502,63.99444 C59.67502,68.43444 59.02162,72.59224 57.71582,76.46664 Z"
		  fill="#FFFFFF"></path>
	<path d="M109.42176,80.97244 C111.64156,79.92724 113.53556,78.53444 115.10276,76.79284 C116.66996,75.05144 117.88896,73.00544 118.75976,70.65484 C119.62976,68.30384 120.06556,65.82284 120.06556,63.21044 C120.06556,60.59864 119.62976,58.11704 118.75976,55.76664 C117.88896,53.41544 116.66996,51.36944 115.10276,49.62824 C113.53556,47.88664 111.64156,46.49364 109.42176,45.44904 C107.20136,44.40424 104.74156,43.88184 102.04296,43.88184 C99.34376,43.88184 96.90576,44.40424 94.72916,45.44904 C92.55236,46.49364 90.68016,47.88664 89.11296,49.62824 C87.54596,51.36944 86.34876,53.41544 85.52176,55.76664 C84.69476,58.11704 84.28096,60.59864 84.28096,63.21044 C84.28096,65.82284 84.69476,68.30384 85.52176,70.65484 C86.34876,73.00544 87.54596,75.05144 89.11296,76.79284 C90.68016,78.53444 92.55236,79.92724 94.72916,80.97244 C96.90576,82.01704 99.34376,82.53964 102.04296,82.53964 C104.74156,82.53964 107.20136,82.01704 109.42176,80.97244 M88.85236,92.66084 C84.93416,90.96304 81.58236,88.63384 78.79616,85.67384 C76.00996,82.71344 73.85456,79.31784 72.33116,75.48704 C70.80716,71.65584 70.04576,67.56384 70.04576,63.21044 C70.04576,58.94404 70.80716,54.87384 72.33116,50.99944 C73.85456,47.12504 76.00996,43.70744 78.79616,40.74724 C81.58236,37.78704 84.93416,35.45824 88.85236,33.76044 C92.76996,32.06264 97.16696,31.21364 102.04296,31.21364 C106.91816,31.21364 111.33716,32.06264 115.29836,33.76044 C119.26036,35.45824 122.65536,37.78704 125.48536,40.74724 C128.31516,43.70744 130.49176,47.12504 132.01516,50.99944 C133.53936,54.87384 134.30056,58.94404 134.30056,63.21044 C134.30056,67.56384 133.53936,71.65584 132.01516,75.48704 C130.49176,79.31784 128.31516,82.71344 125.48536,85.67384 C122.65536,88.63384 119.26036,90.96304 115.29836,92.66084 C111.33716,94.35864 106.91816,95.20744 102.04296,95.20744 C97.16696,95.20744 92.76996,94.35864 88.85236,92.66084"
		  fill="#FFFFFF"></path>
	<path d="M184.24314,80.97244 C186.41974,79.92724 188.29134,78.53444 189.85914,76.79284 C191.42634,75.05144 192.62334,73.00544 193.45034,70.65484 C194.27754,68.30384 194.69134,65.82284 194.69134,63.21044 C194.69134,60.59864 194.27754,58.11704 193.45034,55.76664 C192.62334,53.41544 191.42634,51.36944 189.85914,49.62824 C188.29134,47.88664 186.41974,46.49364 184.24314,45.44904 C182.06654,44.40424 179.62854,43.88184 176.92934,43.88184 C174.14314,43.88184 171.64014,44.40424 169.41974,45.44904 C167.20014,46.49364 165.30594,47.88664 163.73874,49.62824 C162.17154,51.36944 160.97454,53.41544 160.14754,55.76664 C159.32054,58.11704 158.90674,60.59864 158.90674,63.21044 C158.90674,65.82284 159.32054,68.30384 160.14754,70.65484 C160.97454,73.00544 162.17154,75.05144 163.73874,76.79284 C165.30594,78.53444 167.20014,79.92724 169.41974,80.97244 C171.64014,82.01704 174.14314,82.53964 176.92934,82.53964 C179.62854,82.53964 182.06654,82.01704 184.24314,80.97244 L184.24314,80.97244 Z M144.67154,93.64044 L144.67154,2.22024 L158.90674,2.22024 L158.90674,41.00864 C160.82194,37.96124 163.54314,35.56704 167.06934,33.82564 C170.59574,32.08424 174.14314,31.21364 177.71314,31.21364 C182.32774,31.21364 186.55034,32.06264 190.38114,33.76044 C194.21254,35.45824 197.49874,37.78704 200.24174,40.74724 C202.98414,43.70744 205.11754,47.12504 206.64094,50.99944 C208.16434,54.87384 208.92634,58.94404 208.92634,63.21044 C208.92634,67.56384 208.16434,71.65584 206.64094,75.48704 C205.11754,79.31784 202.98414,82.71344 200.24174,85.67384 C197.49874,88.63384 194.21254,90.96304 190.38114,92.66084 C186.55034,94.35864 182.32774,95.20744 177.71314,95.20744 C174.14314,95.20744 170.59574,94.33684 167.06934,92.59584 C163.54314,90.85424 160.82194,88.46004 158.90674,85.41264 L158.90674,93.64044 L144.67154,93.64044 Z"
		  fill="#FFFFFF"></path>
	<polygon fill="#FFFFFF" points="217.415 93.6404 231.6508 93.6404 231.6508 2.2204 217.415 2.2204"></polygon>
	<path d="M244.7508,93.6404 L258.9866,93.6404 L258.9866,32.781 L244.7508,32.781 L244.7508,93.6404 Z M244.4246,3.0692 C246.4706,1.0232 248.9304,0.0002 251.8034,0.0002 C254.764,0.0002 257.267,1.0232 259.313,3.0692 C261.359,5.1156 262.3822,7.6184 262.3822,10.5786 C262.3822,13.452 261.359,15.9116 259.313,17.9578 C257.267,20.0038 254.764,21.0268 251.8034,21.0268 C248.9304,21.0268 246.4706,20.0038 244.4246,17.9578 C242.3786,15.9116 241.3552,13.452 241.3552,10.5786 C241.3552,7.6184 242.3786,5.1156 244.4246,3.0692 L244.4246,3.0692 Z"
		  fill="#FFFFFF"></path>
	<path d="M302.56648,14.36626 C301.52128,14.19206 300.43288,14.10486 299.30148,14.10486 C298.16948,14.10486 297.03728,14.14846 295.90588,14.23566 C294.77388,14.32286 293.75108,14.67106 292.83648,15.28046 C291.92268,15.89006 291.16068,16.84766 290.55108,18.15346 C289.94168,19.45966 289.63668,21.28806 289.63668,23.63886 L289.63668,32.78086 L305.57008,32.78086 L305.57008,44.66546 L289.63668,44.66546 L289.63668,93.64026 L275.40148,93.64026 L275.40148,44.66546 L265.79428,44.66546 L265.79428,32.78086 L275.40148,32.78086 L275.40148,25.20606 C275.40148,19.37246 276.20668,14.86706 277.81748,11.68886 C279.42848,8.51106 281.38768,6.16006 283.69488,4.63646 C286.00228,3.11286 288.41828,2.19866 290.94308,1.89406 C293.46788,1.58926 295.60088,1.43666 297.34248,1.43666 C299.17088,1.43666 300.80308,1.58926 302.23948,1.89406 C303.67668,2.19866 304.78628,2.56886 305.57008,3.00386 L305.57008,15.01926 C304.61248,14.75786 303.61108,14.54026 302.56648,14.36626"
		  fill="#FFFFFF"></path>
	<path d="M348.59966,94.16298 C346.68426,94.33678 344.68146,94.42438 342.59166,94.42438 C340.85066,94.42438 338.84786,94.27178 336.58426,93.96678 C334.32086,93.66218 332.16606,92.81338 330.11946,91.41998 C328.07346,90.02718 326.35446,87.89378 324.96106,85.02058 C323.56826,82.14758 322.87126,78.14258 322.87126,73.00538 L322.87126,44.66558 L312.55366,44.66558 L312.55366,32.78078 L322.87126,32.78078 L322.87126,14.36618 L337.10686,14.36618 L337.10686,32.78078 L351.08066,32.78078 L351.08066,44.66558 L337.10686,44.66558 L337.10686,69.74038 C337.10686,72.35278 337.30266,74.44198 337.69446,76.00978 C338.08646,77.57678 338.67406,78.77398 339.45746,79.60098 C340.24126,80.42798 341.17706,80.97238 342.26546,81.23318 C343.35366,81.49438 344.59446,81.62498 345.98726,81.62498 C347.11946,81.62498 348.42526,81.58198 349.90546,81.49438 C351.38586,81.40758 352.47406,81.27678 353.17046,81.10318 L353.17046,93.64038 C352.03846,93.81478 350.51506,93.98858 348.59966,94.16298"
		  fill="#FFFFFF"></path>
	<path d="M374.99278,61.65094 C371.07598,59.95374 367.72538,57.62554 364.94038,54.66674 C362.15518,51.70714 360.00058,48.31294 358.47778,44.48354 C356.95438,40.65374 356.19318,36.56314 356.19318,32.21154 C356.19318,27.94674 356.95438,23.87814 358.47778,20.00514 C360.00058,16.13214 362.15518,12.71594 364.94038,9.75674 C367.72538,6.79754 371.07598,4.46974 374.99278,2.77234 C378.90898,1.07534 383.30438,0.22674 388.17838,0.22674 C393.05178,0.22674 397.46918,1.07534 401.42898,2.77234 C405.38958,4.46974 408.78318,6.79754 411.61198,9.75674 C414.44098,12.71594 416.61678,16.13214 418.13958,20.00514 C419.66298,23.87814 420.42418,27.94674 420.42418,32.21154 C420.42418,36.56314 419.66298,40.65374 418.13958,44.48354 C416.61678,48.31294 414.44098,51.70714 411.61198,54.66674 C408.78318,57.62554 405.38958,59.95374 401.42898,61.65094 C397.46918,63.34814 393.05178,64.19674 388.17838,64.19674 C383.30438,64.19674 378.90898,63.34814 374.99278,61.65094"
		  fill="#19BFA8"></path>
	<polygon fill="#FFFFFF" points="407.63642 44.54844 388.30862 10.61284 368.98082 44.54844"></polygon>
</svg>